<svg width="13" height="11" viewBox="0 0 13 11" fill="none" xmlns="http://www.w3.org/2000/svg">
<path fill-rule="evenodd" clip-rule="evenodd" d="M0.484131 5.5C0.484131 5.22386 0.707988 5 0.984131 5H11.9841C12.2603 5 12.4841 5.22386 12.4841 5.5C12.4841 5.77614 12.2603 6 11.9841 6H0.984131C0.707988 6 0.484131 5.77614 0.484131 5.5Z" fill="#FF859B"/>
<path fill-rule="evenodd" clip-rule="evenodd" d="M5.83768 0.646447C6.03295 0.841709 6.03295 1.15829 5.83768 1.35355L1.69124 5.5L5.83768 9.64645C6.03295 9.84171 6.03295 10.1583 5.83768 10.3536C5.64242 10.5488 5.32584 10.5488 5.13058 10.3536L0.630577 5.85355C0.435315 5.65829 0.435315 5.34171 0.630577 5.14645L5.13058 0.646447C5.32584 0.451184 5.64242 0.451184 5.83768 0.646447Z" fill="#FF859B"/>
</svg>
